<?xml version="1.0" encoding="UTF-8" standalone="no"?>
<!-- Created with Inkscape (http://www.inkscape.org/) -->

<svg
   xmlns:dc="http://purl.org/dc/elements/1.1/"
   xmlns:cc="http://creativecommons.org/ns#"
   xmlns:rdf="http://www.w3.org/1999/02/22-rdf-syntax-ns#"
   xmlns:svg="http://www.w3.org/2000/svg"
   xmlns="http://www.w3.org/2000/svg"
   xmlns:sodipodi="http://sodipodi.sourceforge.net/DTD/sodipodi-0.dtd"
   xmlns:inkscape="http://www.inkscape.org/namespaces/inkscape"
   width="49.91293mm"
   height="15.875506mm"
   viewBox="0 0 176.85684 56.251794"
   id="svg2"
   version="1.1"
   inkscape:version="0.91 r13725"
   sodipodi:docname="logo.svg">
  <defs
     id="defs4" />
  <sodipodi:namedview
     id="base"
     pagecolor="#ffffff"
     bordercolor="#666666"
     borderopacity="1.0"
     inkscape:pageopacity="0.0"
     inkscape:pageshadow="2"
     inkscape:zoom="5.6"
     inkscape:cx="68.035098"
     inkscape:cy="9.8456355"
     inkscape:document-units="px"
     inkscape:current-layer="text3336"
     showgrid="false"
     fit-margin-top="0"
     fit-margin-left="0"
     fit-margin-right="0"
     fit-margin-bottom="0"
     inkscape:window-width="1916"
     inkscape:window-height="1164"
     inkscape:window-x="1920"
     inkscape:window-y="16"
     inkscape:window-maximized="0" />
  <metadata
     id="metadata7">
    <rdf:RDF>
      <cc:Work
         rdf:about="">
        <dc:format>image/svg+xml</dc:format>
        <dc:type
           rdf:resource="http://purl.org/dc/dcmitype/StillImage" />
        <dc:title></dc:title>
      </cc:Work>
    </rdf:RDF>
  </metadata>
  <g
     inkscape:label="Layer 1"
     inkscape:groupmode="layer"
     id="layer1"
     transform="translate(915.75847,37.877717)">
    <g
       style="font-style:normal;font-weight:normal;font-size:70.69246674px;line-height:125%;font-family:sans-serif;letter-spacing:0px;word-spacing:0px;fill:#00ffff;fill-opacity:1;stroke:none;stroke-width:1px;stroke-linecap:butt;stroke-linejoin:miter;stroke-opacity:1"
       id="text3336-3">
      <path
         d="m -911.16346,-27.910079 0,41.920632 5.44332,0 0,-4.5950099 4.6657,0 0,-37.3256221 4.66571,0 0,-4.595011 3.81739,0 0,27.1459076 -4.52432,0 0,5.37262746 9.96764,0 0,-4.59501036 4.6657,0 0,-28.7011417 -4.6657,0 0,-4.59501 -10.03833,0 0,4.524318 -3.88809,0 0,-4.524318 -5.44332,0 0,4.59501 -9.26071,0 0,5.372628 4.59501,0 0,0 z"
         style="font-style:normal;font-variant:normal;font-weight:normal;font-stretch:normal;font-family:'8-bit Limit (BRK)';-inkscape-font-specification:'8-bit Limit (BRK)';fill:#00ffff"
         id="path3359" />
      <path
         d="m -876.36951,-27.839387 0,32.5892273 14.70403,0 0,-5.37262744 -4.59501,0 0,-22.55089686 4.66571,0 0,-4.59501 3.88808,0 0,9.19002 5.37263,0 0,-4.59501 4.6657,0 0,-10.03833 -4.6657,0 0,-4.665703 -5.37263,0 0,4.665703 -4.6657,0 0,4.59501 -3.88809,0 0,-9.260713 -5.44332,0 0,4.665703 -9.26071,0 0,5.372627 4.59501,0 0,0 z"
         style="font-style:normal;font-variant:normal;font-weight:normal;font-stretch:normal;font-family:'8-bit Limit (BRK)';-inkscape-font-specification:'8-bit Limit (BRK)';fill:#00ffff"
         id="path3361" />
      <path
         d="m -836.90986,0.15482999 0,4.59501031 10.10903,0 0,-4.59501031 9.26071,0 0,-4.66570279 4.6657,0 0,-19.3697362 -4.6657,0 0,-9.331405 -4.6657,0 0,-4.665703 -14.70404,0 0,4.665703 -4.59501,0 0,5.372627 13.92642,0 0,4.665703 4.59501,0 0,17.8851941 -8.4831,0 0,-4.6657028 -4.6657,0 0,-13.9264163 -5.44332,0 0,4.665703 -4.59501,0 0,10.0383304 4.59501,0 0,9.33140559 4.6657,0 0,0 z"
         style="font-style:normal;font-variant:normal;font-weight:normal;font-stretch:normal;font-family:'8-bit Limit (BRK)';-inkscape-font-specification:'8-bit Limit (BRK)';fill:#00ffff"
         id="path3363" />
      <path
         d="m -806.78161,0.15482999 0,4.59501031 10.03833,0 0,-5.37262744 -4.59501,0 0,-8.48309596 8.55379,0 0,4.5950103 4.6657,0 0,9.2607131 5.37263,0 0,-4.59501031 4.6657,0 0,-5.44331989 -4.6657,0 0,-9.3314061 -4.59501,0 0,-3.888085 4.59501,0 0,-9.331406 4.6657,0 0,-5.372627 -4.6657,0 0,-4.665703 -9.96764,0 0,5.372627 4.52432,0 0,8.553789 -3.81739,0 0,-4.595011 -4.6657,0 0,-9.331405 -5.44332,0 0,4.665703 -9.26072,0 0,5.372627 4.59501,0 0,4.665703 4.66571,0 0,4.665703 4.59501,0 0,3.888085 -4.59501,0 0,4.6657033 -4.66571,0 0,4.6657028 -4.59501,0 0,5.44331989 4.59501,0 0,0 z"
         style="font-style:normal;font-variant:normal;font-weight:normal;font-stretch:normal;font-family:'8-bit Limit (BRK)';-inkscape-font-specification:'8-bit Limit (BRK)';fill:#00ffff"
         id="path3365" />
      <path
         d="m -771.91697,8.637926 0,5.372627 10.03833,0 0,-4.5950099 4.6657,0 0,-4.6657028 4.59501,0 0,-9.3314056 4.66571,0 0,-9.3314057 4.6657,0 0,-19.369736 -4.6657,0 0,-4.59501 -5.37263,0 0,4.59501 -4.59501,0 0,5.372628 9.19002,0 0,13.290183 -4.59501,0 0,4.595011 -3.88809,0 0,-13.926416 -4.6657,0 0,-13.926416 -5.44332,0 0,4.59501 -9.26071,0 0,5.372628 4.59501,0 0,9.331405 4.6657,0 0,13.9971087 4.59501,0 0,8.5537885 -4.59501,0 0,4.6657028 -4.59501,0 0,0 z"
         style="font-style:normal;font-variant:normal;font-weight:normal;font-stretch:normal;font-family:'8-bit Limit (BRK)';-inkscape-font-specification:'8-bit Limit (BRK)';fill:#00ffff"
         id="path3367" />
    </g>
    <g
       style="font-style:normal;font-weight:normal;font-size:70.69246674px;line-height:125%;font-family:sans-serif;letter-spacing:0px;word-spacing:0px;fill:#ff00ff;fill-opacity:1;stroke:none;stroke-width:1px;stroke-linecap:butt;stroke-linejoin:miter;stroke-opacity:1"
       id="text3336">
      <path
         d="m -906.77857,-23.546555 0,41.920633 5.44332,0 0,-4.59501 4.6657,0 0,-37.325623 4.66571,0 0,-4.59501 3.81739,0 0,27.14590703 -4.52432,0 0,5.37262747 9.96764,0 0,-4.59501034 4.6657,0 0,-28.70114116 -4.6657,0 0,-4.595011 -10.03833,0 0,4.524318 -3.88809,0 0,-4.524318 -5.44332,0 0,4.595011 -9.26071,0 0,5.372627 4.59501,0 0,0 z"
         style="font-style:normal;font-variant:normal;font-weight:normal;font-stretch:normal;font-family:'8-bit Limit (BRK)';-inkscape-font-specification:'8-bit Limit (BRK)';fill:#ff00ff"
         id="path3370" />
      <path
         d="m -871.98462,-23.475862 0,32.5892268 14.70403,0 0,-5.3726275 -4.59501,0 0,-22.5508973 4.6657,0 0,-4.59501 3.88809,0 0,9.190021 5.37263,0 0,-4.595011 4.6657,0 0,-10.03833 -4.6657,0 0,-4.665703 -5.37263,0 0,4.665703 -4.6657,0 0,4.59501 -3.88809,0 0,-9.260713 -5.44332,0 0,4.665703 -9.26071,0 0,5.372628 4.59501,0 0,0 z"
         style="font-style:normal;font-variant:normal;font-weight:normal;font-stretch:normal;font-family:'8-bit Limit (BRK)';-inkscape-font-specification:'8-bit Limit (BRK)';fill:#ff00ff"
         id="path3372" />
      <path
         d="m -832.52497,4.5183544 0,4.5950104 10.10902,0 0,-4.5950104 9.26072,0 0,-4.66570277 4.6657,0 0,-19.36973563 -4.6657,0 0,-9.331406 -4.66571,0 0,-4.665703 -14.70403,0 0,4.665703 -4.59501,0 0,5.372628 13.92642,0 0,4.665702 4.59501,0 0,17.88519449 -8.4831,0 0,-4.66570279 -4.6657,0 0,-13.9264157 -5.44332,0 0,4.665703 -4.59501,0 0,10.0383298 4.59501,0 0,9.3314056 4.6657,0 0,0 z"
         style="font-style:normal;font-variant:normal;font-weight:normal;font-stretch:normal;font-family:'8-bit Limit (BRK)';-inkscape-font-specification:'8-bit Limit (BRK)';fill:#ff00ff"
         id="path3374" />
      <path
         d="m -802.39672,4.5183544 0,4.5950104 10.03833,0 0,-5.3726275 -4.59501,0 0,-8.483096 8.55379,0 0,4.59501033 4.6657,0 0,9.26071317 5.37263,0 0,-4.5950104 4.6657,0 0,-5.44331991 -4.6657,0 0,-9.33140549 -4.59501,0 0,-3.888086 4.59501,0 0,-9.331405 4.6657,0 0,-5.372628 -4.6657,0 0,-4.665703 -9.96764,0 0,5.372628 4.52432,0 0,8.553788 -3.81739,0 0,-4.59501 -4.66571,0 0,-9.331406 -5.44332,0 0,4.665703 -9.26071,0 0,5.372628 4.59501,0 0,4.665702 4.6657,0 0,4.665703 4.59501,0 0,3.888086 -4.59501,0 0,4.6657027 -4.6657,0 0,4.66570279 -4.59501,0 0,5.44331991 4.59501,0 0,0 z"
         style="font-style:normal;font-variant:normal;font-weight:normal;font-stretch:normal;font-family:'8-bit Limit (BRK)';-inkscape-font-specification:'8-bit Limit (BRK)';fill:#ff00ff"
         id="path3376" />
      <path
         d="m -767.53208,13.00145 0,5.372628 10.03833,0 0,-4.59501 4.6657,0 0,-4.6657032 4.59501,0 0,-9.33140564 4.6657,0 0,-9.33140556 4.66571,0 0,-19.3697356 -4.66571,0 0,-4.595011 -5.37262,0 0,4.595011 -4.59501,0 0,5.372627 9.19002,0 0,13.290184 -4.59501,0 0,4.5950102 -3.88809,0 0,-13.9264162 -4.6657,0 0,-13.926416 -5.44332,0 0,4.595011 -9.26071,0 0,5.372627 4.59501,0 0,9.331406 4.6657,0 0,13.99710816 4.59501,0 0,8.55378844 -4.59501,0 0,4.6657024 -4.59501,0 0,0 z"
         style="font-style:normal;font-variant:normal;font-weight:normal;font-stretch:normal;font-family:'8-bit Limit (BRK)';-inkscape-font-specification:'8-bit Limit (BRK)';fill:#ff00ff"
         id="path3378" />
    </g>
  </g>
</svg>
